<svg xmlns="http://www.w3.org/2000/svg" x="0px" y="0px" width="100" height="100" viewBox="0,0,255.99359,255.99359">
<g fill="#0b0b0b" fill-rule="nonzero" stroke="none" stroke-width="1" stroke-linecap="butt" stroke-linejoin="miter" stroke-miterlimit="10" stroke-dasharray="" stroke-dashoffset="0" font-family="none" font-weight="none" font-size="none" text-anchor="none" style="mix-blend-mode: normal"><path d="M0,255.99359v-255.99359h255.99359v255.99359z" id="bgRectangle"></path></g><g fill="#fdfafa" fill-rule="nonzero" stroke="none" stroke-width="1" stroke-linecap="butt" stroke-linejoin="miter" stroke-miterlimit="10" stroke-dasharray="" stroke-dashoffset="0" font-family="none" font-weight="none" font-size="none" text-anchor="none" style="mix-blend-mode: normal"><g transform="scale(5.12,5.12)"><path d="M39.038,9.076c-7.113,0 -5.364,-3.076 -12.038,-3.076c-1.6,0 -2,1 -2,2v21c0,2.214 -1.032,4 -5,4c-5.661,0 -8,1.464 -8,5c0,2.383 0.489,6 7.936,6c6.919,0 7.064,-5.318 7.064,-8c0,-1.027 0,-3.903 0,-7v-12c0.005,-1.355 0.2,-2 1,-2c5.138,0 3.871,3 11,3c0,0 2,0 2,-1.699c0,-2.555 0,-4.363 0,-5.333c0,-1.533 -0.688,-1.892 -1.962,-1.892z"></path></g></g>
</svg>